HIERARCHY
ROOT Root
{
	OFFSET 0.00 0.00 0.00
	CHANNELS 6 Xposition Yposition Zposition Xrotation Yrotation Zrotation
	JOINT L_Femur
	{
		OFFSET 2.78527 0.00000 0.00000
		CHANNELS 3 Xrotation Yrotation Zrotation
		JOINT L_Tibia
		{
			OFFSET 0.00000 -16.41095 0.00000
			CHANNELS 3 Xrotation Yrotation Zrotation
			JOINT L_Foot
			{
				OFFSET 0.00000 -14.21163 0.00000
				CHANNELS 3 Xrotation Yrotation Zrotation
				JOINT L_Toe
				{
					OFFSET 0.00000 -1.60827 6.00215
					CHANNELS 3 Xrotation Yrotation Zrotation
					End Site
					{
						OFFSET 0.00000 0.00000 2.95275
					}
				}
			}
		}
	}
	JOINT R_Femur
	{
		OFFSET -2.78527 0.00000 0.00000
		CHANNELS 3 Xrotation Yrotation Zrotation
		JOINT R_Tibia
		{
			OFFSET 0.00000 -16.41095 0.00000
			CHANNELS 3 Xrotation Yrotation Zrotation
			JOINT R_Foot
			{
				OFFSET 0.00000 -14.21163 0.00000
				CHANNELS 3 Xrotation Yrotation Zrotation
				JOINT R_Toe
				{
					OFFSET 0.00000 -1.60827 6.00215
					CHANNELS 3 Xrotation Yrotation Zrotation
					End Site
					{
						OFFSET 0.00000 0.00000 2.95275
					}
				}
			}
		}
	}
	JOINT LowerBack
	{
		OFFSET 0.00000 0.03937 0.00000
		CHANNELS 3 Xrotation Yrotation Zrotation
		JOINT Thorax
		{
			OFFSET 0.00000 7.01329 0.00000
			CHANNELS 3 Xrotation Yrotation Zrotation
			JOINT Neck
			{
				OFFSET 0.00000 7.25825 0.00000
				CHANNELS 3 Xrotation Yrotation Zrotation
				JOINT Head
				{
					OFFSET 0.00000 5.63334 0.00000
					CHANNELS 3 Xrotation Yrotation Zrotation
					End Site
					{
						OFFSET 0.00000 4.52755 0.00000
					}
				}
			}
			JOINT L_Collar
			{
				OFFSET 0.00000 7.25825 0.00000
				CHANNELS 3 Xrotation Yrotation Zrotation
				JOINT L_Humerus
				{
					OFFSET 6.91821 -0.00003 0.00000
					CHANNELS 3 Xrotation Yrotation Zrotation
					JOINT L_Elbow
					{
						OFFSET 10.34006 -0.00004 0.00000
						CHANNELS 3 Xrotation Yrotation Zrotation
						JOINT L_Wrist
						{
							OFFSET 7.25554 -0.00003 0.00000
							CHANNELS 3 Xrotation Yrotation Zrotation
							JOINT L_Thumb
							{
								OFFSET 0.00000 0.00000 0.00000
								CHANNELS 3 Xrotation Yrotation Zrotation
								End Site
								{
									OFFSET 0.00000 0.00000 3.93700
								}
							}
							JOINT L_Wrist_End
							{
								OFFSET 3.93700 -0.00001 0.00000
								CHANNELS 3 Xrotation Yrotation Zrotation
							}
						}
					}
				}
			}
			JOINT R_Collar
			{
				OFFSET 0.00000 7.25825 0.00000
				CHANNELS 3 Xrotation Yrotation Zrotation
				JOINT R_Humerus
				{
					OFFSET -6.91821 -0.00003 0.00000
					CHANNELS 3 Xrotation Yrotation Zrotation
					JOINT R_Elbow
					{
						OFFSET -10.34006 -0.00004 0.00000
						CHANNELS 3 Xrotation Yrotation Zrotation
						JOINT R_Wrist
						{
							OFFSET -7.25554 -0.00003 0.00000
							CHANNELS 3 Xrotation Yrotation Zrotation
							JOINT R_Thumb
							{
								OFFSET 0.00000 0.00000 0.00000
								CHANNELS 3 Xrotation Yrotation Zrotation
								End Site
								{
									OFFSET 0.00000 0.00000 3.93700
								}
							}
							JOINT R_Wrist_End
							{
								OFFSET -5.39369 -0.00002 0.00000
								CHANNELS 3 Xrotation Yrotation Zrotation
							}
						}
					}
				}
			}
		}
	}
}
MOTION
Frames: 8
Frame Time: 0.066664
 14.6073 32.5869 -37.6984 171.8860 -9.7501 177.5323 -16.1764 31.0197 11.9399 9.0770 -0.0000 0.0000 -6.3749 -13.9745 -4.1198 -8.7246 0.0000 0.0000 -17.5537 -2.3656 -7.9985 30.5394 -0.0000 0.0000 -18.3359 -0.2252 -2.5596 -9.0410 0.0000 0.0000 -4.7948 -2.1761 -11.9555 3.7717 -2.1133 11.9248 2.3732 -50.3266 4.9558 3.0296 71.5400 0.1602 3.0284 21.6708 1.6684 -5.6922 -43.1146 -77.6535 -0.0001 -21.2612 -0.0000 -25.4886 1.3223 -6.3864 -0.0000 0.0000 -0.0000 -0.0000 0.0000 -0.0000 9.0130 -5.8330 -8.0710 -10.2375 30.3141 84.6871 -0.0001 34.9955 0.0000 -3.1409 5.6543 -8.4324 -0.0000 0.0000 -0.0000 -0.0000 0.0000 -0.0000
 14.0681 32.6447 -37.5797 171.6291 -9.7543 176.9174 -16.2716 29.7881 11.3758 9.7113 0.0000 0.0000 -7.0423 -12.8990 -3.7505 -8.7150 -0.0000 -0.0000 -17.5349 0.8127 -1.3482 28.7449 -0.0000 0.0000 -20.2732 -0.5909 -2.8496 -8.8310 0.0000 -0.0000 -4.6784 -2.1765 -11.8770 3.5678 -2.0800 11.7848 1.5925 -50.7728 4.3026 5.6963 71.6024 -1.8117 3.0630 21.7727 1.0104 -6.7141 -41.1345 -76.4138 -0.0001 -19.4560 -0.0000 -24.8810 1.3678 -5.8470 -0.0000 0.0000 -0.0000 -0.0000 0.0000 -0.0000 8.8920 -5.4771 -8.2967 -10.3483 32.5114 84.5157 -0.0001 35.1088 0.0000 -2.0381 5.3064 -8.7363 -0.0000 0.0000 -0.0000 -0.0000 0.0000 -0.0000
 13.5738 32.6764 -37.5260 171.4252 -9.9857 176.7583 -15.7599 30.3088 10.4045 9.1644 -0.0000 0.0000 -7.3476 -13.6261 -4.0580 -8.6581 -0.0000 -0.0000 -17.8046 8.7559 3.6945 25.4711 -0.0000 0.0000 -20.8674 2.9313 -0.5362 -9.1497 0.0000 0.0000 -4.7441 -2.2374 -11.5637 3.3830 -2.1532 11.9405 1.3994 -50.7959 3.9437 7.6213 71.6439 -4.0273 3.3744 22.0828 0.3069 -9.5450 -37.4263 -77.8057 -0.0001 -17.6362 -0.0000 -25.0431 0.7756 -4.9372 -0.0000 0.0000 -0.0000 -0.0000 0.0000 -0.0000 8.9539 -5.4786 -8.3225 -10.5646 32.8231 84.0056 -0.0001 34.1013 0.0000 -1.9306 5.1589 -8.7866 -0.0000 0.0000 -0.0000 -0.0000 0.0000 -0.0000
 13.0117 32.6575 -37.5195 171.2981 -11.7259 177.4809 -14.4201 29.6521 7.9011 8.8492 0.0000 0.0000 -7.7903 -14.2597 -3.5414 -8.8152 -0.0000 -0.0000 -17.2962 12.5624 4.7355 21.9082 -0.0000 0.0000 -20.5158 4.4033 -0.7856 -9.2216 -0.0000 0.0000 -4.8620 -2.6293 -11.0696 3.2307 -2.5820 12.0738 1.3997 -51.0723 3.8063 8.7155 71.5909 -5.8079 3.1947 21.3045 0.1883 -9.9935 -37.5067 -79.2195 -0.0001 -18.4012 -0.0000 -24.9329 0.9487 -4.9554 -0.0000 0.0000 -0.0000 -0.0000 0.0000 -0.0000 8.7373 -6.0396 -8.5305 -10.6255 29.9785 84.1636 -0.0001 32.1652 0.0000 -2.6078 5.2946 -8.8463 -0.0000 0.0000 -0.0000 -0.0000 0.0000 -0.0000
 12.4073 32.5505 -37.5218 171.6059 -13.1154 179.0038 -14.0390 26.7074 5.2181 12.5762 -0.0000 0.0000 -10.2970 -12.2580 -1.7765 -8.8554 0.0000 -0.0000 -15.1102 12.0978 2.3047 19.0513 -0.0000 0.0000 -16.7461 4.9505 -2.1169 -9.1522 -0.0000 -0.0000 -4.9070 -2.5970 -10.4431 3.2355 -2.5645 12.4448 1.3919 -51.2465 3.7231 10.4212 71.6141 -8.4904 3.1895 21.1160 0.0189 -10.0670 -41.8612 -80.6847 -0.0001 -20.9478 -0.0000 -22.5202 1.4613 -5.7201 -0.0000 0.0000 -0.0000 -0.0000 0.0000 -0.0000 8.6496 -6.1892 -8.6193 -10.6415 26.5084 83.9156 -0.0001 28.9503 0.0000 -3.8915 5.6751 -8.8968 -0.0000 0.0000 -0.0000 -0.0000 0.0000 -0.0000
 11.9093 32.3391 -37.4035 172.1758 -13.4435 179.3611 -19.0609 25.0286 6.4330 24.8065 -0.0000 0.0000 -15.6717 -11.2010 1.6774 -8.9016 0.0000 0.0000 -15.4623 12.6945 1.3932 21.3874 -0.0000 0.0000 -17.7957 4.5439 -0.7945 -8.8779 0.0000 0.0000 -4.4090 -2.0911 -9.3263 3.8220 -1.8754 13.8702 2.4609 -50.8435 5.5497 11.3600 71.4669 -11.1375 3.2303 21.8952 0.3361 -12.0539 -43.9551 -83.9619 -0.0001 -25.0461 -0.0000 -19.7274 1.8828 -5.7836 -0.0000 -0.0000 0.0000 -0.0000 -0.0000 0.0000 8.8315 -5.2419 -8.2781 -10.6603 24.2663 82.4943 -0.0001 25.8083 0.0000 -4.2993 5.7046 -8.8453 -0.0000 0.0000 -0.0000 -0.0000 0.0000 -0.0000
 11.4332 32.2989 -37.4370 172.2848 -13.8393 179.0294 -22.1680 26.9818 8.7655 30.3015 -0.0000 0.0000 -19.0711 -10.3818 1.1284 -8.3488 0.0000 0.0000 -15.1151 11.9919 0.7519 21.8001 -0.0000 0.0000 -18.2181 4.8142 -0.0627 -8.6249 0.0000 0.0000 -4.8495 -2.1485 -8.9970 4.1375 -1.8225 16.2280 4.6288 -50.4765 7.1757 14.5010 71.1138 -14.1330 4.0484 22.1023 -0.0582 -12.1784 -44.1990 -85.9096 -0.0001 -28.1445 -0.0000 -22.8617 0.5363 -5.6613 -0.0000 0.0000 -0.0000 -0.0000 0.0000 -0.0000 10.0908 -4.4857 -6.5566 -10.9784 25.4745 79.4928 -0.0001 22.3541 0.0000 -2.4243 4.8102 -9.3806 -0.0000 0.0000 -0.0000 -0.0000 0.0000 -0.0000
 10.7459 32.5348 -37.5984 172.5447 -14.4470 -179.5489 -21.1642 28.6510 9.0144 28.0548 -0.0000 0.0000 -18.6950 -8.4554 2.4348 -8.0741 0.0000 0.0000 -12.1149 12.3034 -2.1332 18.5363 -0.0000 0.0000 -16.8913 4.2155 -0.2712 -8.8441 0.0000 0.0000 -5.1107 -2.4960 -9.2966 4.0712 -2.2142 17.0534 4.3658 -51.1818 7.3179 20.8037 70.4513 -19.1478 3.7549 21.8085 0.9630 -11.4009 -46.3030 -87.9906 -0.0001 -27.9844 -0.0000 -20.7764 1.4652 -6.5340 -0.0000 0.0000 -0.0000 -0.0000 0.0000 -0.0000 9.3162 -5.7491 -7.2403 -11.4549 21.3044 81.6848 -0.0001 20.6000 0.0000 -0.3803 3.5830 -9.9682 -0.0000 0.0000 -0.0000 -0.0000 0.0000 -0.0000
